<svg fill="none" xmlns="http://www.w3.org/2000/svg" viewBox="0 0 214 42">
  <path d="M52.9251 14.625c.05-.3.15-.45.3-.45.125 0 .25.075.45.525l4.65 9.45 4.625-9.575c.125-.275.225-.4.375-.4s.25.175.3.525l1.55 10.4c.15 1.075.325 1.575.825 1.725.5.15.825.175 1.05.175.15 0 .275.025.275.125 0 .125-.2.175-.45.175-.425 0-2.775-.025-3.45-.075-.4-.025-.5-.075-.5-.175 0-.075.075-.125.175-.175.1-.025.15-.25.075-.725l-1.025-7.4h-.075l-3.7 7.575c-.4.8-.475.95-.625.95-.15 0-.325-.35-.6-.85-.4-.775-1.75-3.375-1.95-3.85-.15-.35-1.175-2.35-1.775-3.625h-.075l-.875 6.625c-.025.3-.05.525-.05.8 0 .325.225.475.5.55.3.075.55.075.725.075.125 0 .25.025.25.125 0 .15-.15.175-.4.175-.725 0-1.475-.05-1.775-.05-.325 0-1.15.05-1.675.05-.175 0-.3-.025-.3-.175 0-.075.1-.125.275-.125.125 0 .25 0 .5-.05.475-.1.6-.775.7-1.35l1.7-10.975ZM70.025 19.35c0-2.575 0-3.05-.025-3.6-.025-.575-.2-.875-.575-.95-.175-.05-.4-.075-.6-.075-.175 0-.275-.025-.275-.175 0-.1.125-.125.4-.125.65 0 1.725.05 2.2.05.425 0 1.425-.05 2.075-.05.225 0 .35.025.35.125 0 .125-.1.175-.275.175-.175 0-.3.025-.5.05-.45.075-.6.375-.625.975-.025.55-.025 1.025-.025 3.6v3c0 1.65 0 3 .075 3.725.05.45.175.775.675.825.25.025.6.075.875.075.175 0 .275.05.275.125 0 .125-.125.175-.325.175-1.125 0-2.2-.05-2.65-.05-.4 0-1.45.05-2.15.05-.225 0-.35-.05-.35-.175 0-.075.075-.125.275-.125.25 0 .45-.025.6-.075.35-.075.45-.35.5-.85.075-.725.075-2.05.075-3.7v-3ZM77.7 19.35c0-2.575 0-3.05-.025-3.6-.025-.575-.175-.85-.725-.975-.125-.025-.425-.05-.675-.05-.175 0-.3-.025-.3-.15s.125-.15.375-.15c.9 0 1.975.05 2.325.05.575 0 1.875-.05 2.4-.05 1.075 0 2.2.1 3.125.725.475.325 1.15 1.2 1.15 2.325 0 1.25-.525 2.425-2.25 3.8 1.5 1.9 2.675 3.425 3.7 4.475.95.975 1.65 1.1 1.9 1.15.175.025.35.05.475.05s.2.05.2.125c0 .125-.125.175-.325.175h-1.625c-.95 0-1.375-.075-1.825-.325-.725-.4-1.375-1.2-2.325-2.5-.675-.925-1.45-2.1-1.675-2.35-.075-.1-.175-.125-.3-.125l-1.475-.025c-.075 0-.125.025-.125.125v.25c0 1.575 0 2.925.075 3.625.05.5.15.875.675.925.25.025.625.075.825.075.125 0 .2.05.2.125 0 .125-.125.175-.35.175-.975 0-2.25-.05-2.5-.05-.325 0-1.4.05-2.075.05-.225 0-.35-.05-.35-.175 0-.075.075-.125.275-.125.25 0 .45-.025.6-.075.35-.075.425-.45.5-.925.075-.725.075-2.05.075-3.625v-2.95h.05Zm2.025 1.35c0 .175.025.25.15.3.35.125.875.175 1.3.175.675 0 .9-.075 1.2-.3.5-.375 1-1.15 1-2.55 0-2.425-1.6-3.1-2.6-3.1-.425 0-.725.025-.9.075-.125.025-.15.1-.15.25v5.15Z" fill="#fff"/>
  <path d="M91.225 22.95c-.075 0-.125.025-.15.125L90.15 25.4c-.175.425-.25.825-.25 1.025 0 .3.15.525.675.525h.25c.2 0 .25.025.25.125 0 .125-.1.175-.3.175-.55 0-1.275-.05-1.8-.05-.175 0-1.125.05-2 .05-.225 0-.325-.025-.325-.175 0-.1.075-.125.2-.125.15 0 .4-.025.525-.025.775-.1 1.1-.675 1.45-1.525L93.1 14.8749c.2-.5.3-.6749.475-.6749.15 0 .25.1499.425.5499.4.925 3.125 7.7251 4.225 10.3251.65 1.525 1.1501 1.775 1.5001 1.85.25.05.4999.075.7249.075.125 0 .225.025.225.125 0 .125-.15.175-.775.175-.6 0-1.85 0-3.2-.025-.3-.025-.5-.025-.5-.125s.075-.125.25-.15c.125-.025.25-.175.15-.4l-1.35-3.5c-.025-.075-.075-.125-.175-.125h-3.85v-.025Zm3.45-.85c.075 0 .1-.0501.075-.1001l-1.525-4.1749c-.025-.075-.025-.1501-.075-.1501-.05 0-.075.0751-.1.1501l-1.575 4.1749c-.025.075 0 .125.075.125h3.125V22.1ZM112.75 26.1249c0 .45-.025.5-.225.6-1.1.575-2.775.775-4.1.775-4.175 0-7.85-1.975-7.85-6.65 0-2.725 1.4-4.625 2.95-5.55 1.625-.975 3.15-1.0999 4.575-1.0999 1.175 0 2.675.1999 3 .2749.35.075.95.175 1.35.175.2.025.25.075.25.2 0 .175-.125.675-.125 2.775 0 .275-.05.35-.175.35-.125 0-.15-.075-.175-.225-.05-.4-.125-.925-.575-1.4-.5-.55-1.875-1.325-3.8-1.325-.925 0-2.175.0751-3.375 1.0501-.95.8-1.575 2.0749-1.575 4.1749 0 3.65 2.325 6.4 5.925 6.4.45 0 1.025 0 1.45-.175.25-.125.325-.35.325-.625v-1.6c0-.85 0-1.5-.025-2-.025-.575-.175-.85-.725-.975-.125-.025-.425-.05-.675-.05-.15 0-.25-.025-.25-.125 0-.125.125-.175.35-.175.875 0 1.95.05 2.475.05.525 0 1.425-.05 2-.05.225 0 .35.025.35.175 0 .1-.1.125-.225.125s-.25.025-.45.05c-.45.075-.625.375-.65.975-.025.5-.025 1.2-.025 2.05v1.825ZM117.5 19.35c0-2.575 0-3.05-.025-3.6-.025-.575-.175-.85-.725-.975-.125-.025-.425-.05-.675-.05-.175 0-.3-.025-.3-.15s.125-.15.375-.15c.45 0 .95.025 1.375.025.45.025.825.025 1.075.025.55 0 3.925 0 4.25-.025.325-.025.6-.075.725-.1.075-.025.175-.075.275-.075.1 0 .1.075.1.15 0 .125-.075.325-.125 1.1-.025.175-.05.925-.075 1.125-.025.075-.05.175-.175.175-.125 0-.15-.075-.15-.25 0-.125-.025-.4-.1-.6-.125-.3-.3-.5-1.15-.6-.3-.025-2.075-.075-2.425-.075-.075 0-.125.05-.125.175v4.3c0 .125.025.175.125.175.375 0 2.325 0 2.725-.025.4-.025.675-.075.825-.25.125-.125.175-.225.275-.225.075 0 .125.025.125.125s-.075.375-.125 1.25c-.025.35-.075 1.025-.075 1.15s0 .3249-.15.3249c-.125 0-.15-.0749-.15-.1499-.025-.175-.025-.4001-.075-.6001-.075-.35-.325-.6-.95-.675-.325-.025-2-.0499-2.425-.0499-.075 0-.1.0749-.1.1749V22.35c0 .5749-.025 2.1499 0 2.6249.025 1.175.3 1.425 2.05 1.425.45 0 1.15.0001 1.6-.1999.45-.2.65-.55.775-1.25.025-.175.075-.25.175-.25.125 0 .125.1249.125.2999 0 .4-.125 1.55-.225 1.875-.125.45-.275.4501-.925.4501-1.275 0-2.2-.0251-2.95-.0501-.725-.025-1.25-.05-1.775-.05-.175 0-.55 0-.975.025-.4 0-.825.025-1.175.025-.225 0-.35-.05-.35-.175 0-.075.075-.125.275-.125.25 0 .45-.025.6-.075.35-.075.425-.45.5-.925.075-.725.075-2.05.075-3.6249v-3h.05ZM143.65 26.1249c0 .45-.025.5-.225.6-1.1.575-2.775.775-4.1.775-4.175 0-7.85-1.975-7.85-6.65 0-2.725 1.4-4.625 2.95-5.55 1.625-.975 3.15-1.0999 4.575-1.0999 1.175 0 2.675.1999 3 .2749.35.075.95.175 1.35.175.2.025.25.075.25.2 0 .175-.125.675-.125 2.775 0 .275-.05.35-.175.35-.125 0-.15-.075-.175-.225-.05-.4-.125-.925-.575-1.4-.5-.55-1.875-1.325-3.8-1.325-.925 0-2.175.0751-3.375 1.0501-.95.8-1.575 2.0749-1.575 4.1749 0 3.65 2.325 6.4 5.925 6.4.45 0 1.025 0 1.45-.175.25-.125.325-.35.325-.625v-1.6c0-.85 0-1.5-.025-2-.025-.575-.175-.85-.725-.975-.125-.025-.425-.05-.675-.05-.15 0-.25-.025-.25-.125 0-.125.125-.175.35-.175.875 0 1.95.05 2.475.05.525 0 1.425-.05 2-.05.225 0 .35.025.35.175 0 .1-.1.125-.225.125s-.25.025-.45.05c-.45.075-.625.375-.65.975-.025.5-.025 1.2-.025 2.05v1.825ZM149.075 22.95c-.075 0-.125.025-.15.125L148 25.4c-.175.425-.25.825-.25 1.025 0 .3.15.525.675.525h.25c.2 0 .25.025.25.125 0 .125-.1.175-.3.175-.55 0-1.275-.05-1.8-.05-.175 0-1.125.05-2 .05-.225 0-.325-.025-.325-.175 0-.1.075-.125.2-.125.15 0 .4-.025.525-.025.775-.1 1.1-.675 1.45-1.525l4.275-10.5251c.2-.5.3-.6749.475-.6749.15 0 .25.1499.425.5499.4.925 3.125 7.7251 4.225 10.3251.65 1.525 1.15 1.775 1.5 1.85.25.05.5.075.725.075.125 0 .225.025.225.125 0 .125-.15.175-.775.175-.6 0-1.85 0-3.2-.025-.3-.025-.5-.025-.5-.125s.075-.125.25-.15c.125-.025.25-.175.15-.4l-1.35-3.5c-.025-.075-.075-.125-.175-.125h-3.85v-.025Zm3.45-.85c.075 0 .1-.0501.075-.1001l-1.525-4.1749c-.025-.075-.025-.1501-.075-.1501-.05 0-.075.0751-.1.1501l-1.575 4.1749c-.025.075 0 .125.075.125h3.125V22.1ZM162.4 22.35c0 2.175 0 3.35.35 3.65.3.25.725.375 2.05.375.9 0 1.575-.025 2-.475.2-.225.4-.7.45-1.025.025-.15.05-.25.175-.25.125 0 .125.075.125.3 0 .175-.125 1.45-.25 1.95-.1.375-.175.45-1.075.45-1.225 0-2.1-.025-2.875-.05-.775-.025-1.375-.05-2.075-.05-.175 0-.55 0-.975.025-.4 0-.825.025-1.175.025-.225 0-.35-.05-.35-.175 0-.075.075-.125.275-.125.25 0 .45-.025.6-.075.35-.075.425-.45.5-.925.075-.725.075-2.05.075-3.625v-3c0-2.575 0-3.05-.025-3.6-.025-.575-.175-.85-.725-.975-.125-.025-.35-.05-.55-.05-.175 0-.3-.025-.3-.15s.125-.15.375-.15c.8 0 1.875.05 2.325.05.4 0 1.65-.05 2.3-.05.25 0 .35.025.35.15s-.1.15-.3.15c-.175 0-.45.025-.675.05-.45.075-.6.375-.625.975-.025.55-.025 1.025-.025 3.6v3h.05ZM172.675 22.35c0 2.175 0 3.35.35 3.65.3.25.725.375 2.05.375.9 0 1.575-.025 2-.475.2-.225.4-.7.45-1.025.025-.15.05-.25.175-.25.125 0 .125.075.125.3 0 .175-.125 1.45-.25 1.95-.1.375-.175.45-1.075.45-1.225 0-2.1-.025-2.875-.05-.775-.025-1.375-.05-2.075-.05-.175 0-.55 0-.975.025-.4 0-.825.025-1.175.025-.225 0-.35-.05-.35-.175 0-.075.075-.125.275-.125.25 0 .45-.025.6-.075.35-.075.425-.45.5-.925.075-.725.075-2.05.075-3.625v-3c0-2.575 0-3.05-.025-3.6-.025-.575-.175-.85-.725-.975-.125-.025-.35-.05-.55-.05-.175 0-.3-.025-.3-.15s.125-.15.375-.15c.8 0 1.875.05 2.325.05.4 0 1.65-.05 2.3-.05.25 0 .35.025.35.15s-.1.15-.3.15c-.175 0-.45.025-.675.05-.45.075-.6.375-.625.975-.025.55-.025 1.025-.025 3.6v3h.05ZM180.85 19.35c0-2.575 0-3.05-.025-3.6-.025-.575-.175-.85-.725-.975-.125-.025-.425-.05-.675-.05-.175 0-.3-.025-.3-.15s.125-.15.375-.15c.45 0 .95.025 1.375.025.45.025.825.025 1.075.025.55 0 3.925 0 4.25-.025.325-.025.6-.075.725-.1.075-.025.175-.075.275-.075.1 0 .1.075.1.15 0 .125-.075.325-.125 1.1-.025.175-.05.925-.075 1.125-.025.075-.05.175-.175.175-.125 0-.15-.075-.15-.25 0-.125-.025-.4-.1-.6-.125-.3-.3-.5-1.15-.6-.3-.025-2.075-.075-2.425-.075-.075 0-.125.05-.125.175v4.3c0 .125.025.175.125.175.375 0 2.325 0 2.725-.025.4-.025.675-.075.825-.25.125-.125.175-.225.275-.225.075 0 .125.025.125.125s-.075.375-.125 1.25c-.025.35-.075 1.025-.075 1.15s0 .3249-.15.3249c-.125 0-.15-.0749-.15-.1499-.025-.175-.025-.4001-.075-.6001-.075-.35-.325-.6-.95-.675-.325-.025-2-.0499-2.425-.0499-.075 0-.1.0749-.1.1749V22.35c0 .5749-.025 2.1499 0 2.6249.025 1.175.3 1.425 2.05 1.425.45 0 1.15.0001 1.6-.1999.45-.2.65-.55.775-1.25.025-.175.075-.25.175-.25.125 0 .125.1249.125.2999 0 .4-.125 1.55-.225 1.875-.125.45-.275.4501-.925.4501-1.275 0-2.2-.0251-2.95-.0501-.725-.025-1.25-.05-1.775-.05-.175 0-.55 0-.975.025-.4 0-.825.025-1.175.025-.225 0-.35-.05-.35-.175 0-.075.075-.125.275-.125.25 0 .45-.025.6-.075.35-.075.425-.45.5-.925.075-.725.075-2.05.075-3.6249v-3h.05ZM191.575 19.35c0-2.575 0-3.05-.025-3.6-.025-.575-.175-.85-.725-.975-.125-.025-.425-.05-.675-.05-.175 0-.3-.025-.3-.15s.125-.15.375-.15c.9 0 1.975.05 2.325.05.575 0 1.875-.05 2.4-.05 1.075 0 2.2.1 3.125.725.475.325 1.15 1.2 1.15 2.325 0 1.25-.525 2.425-2.25 3.8 1.525 1.9 2.675 3.425 3.7 4.475.95.975 1.65 1.1 1.9 1.15.175.025.35.05.475.05s.2.05.2.125c0 .125-.125.175-.325.175H201.3c-.95 0-1.375-.075-1.825-.325-.725-.4-1.375-1.2-2.325-2.5-.675-.925-1.45-2.1-1.675-2.35-.075-.1-.175-.125-.3-.125l-1.475-.025c-.075 0-.125.025-.125.125v.25c0 1.575 0 2.925.075 3.625.05.5.15.875.675.925.25.025.625.075.825.075.125 0 .2.05.2.125 0 .125-.125.175-.35.175-.975 0-2.25-.05-2.5-.05-.325 0-1.4.05-2.075.05-.225 0-.35-.05-.35-.175 0-.075.075-.125.275-.125.25 0 .45-.025.6-.075.35-.075.425-.45.5-.925.075-.725.075-2.05.075-3.625v-2.95h.05Zm2.025 1.35c0 .175.025.25.15.3.35.125.875.175 1.3.175.675 0 .9-.075 1.2-.3.5-.375 1-1.15 1-2.55 0-2.425-1.6-3.1-2.6-3.1-.425 0-.725.025-.9.075-.125.025-.15.1-.15.25v5.15ZM205.975 22.875c0-.925-.175-1.3-.4-1.775-.125-.275-2.4-4-3-4.9-.425-.625-.85-1.05-1.175-1.25-.225-.125-.5-.225-.725-.225-.125 0-.25-.025-.25-.15 0-.1.125-.15.325-.15.3 0 1.575.05 2.15.05.35 0 1.05-.05 1.825-.05.175 0 .25.05.25.15 0 .1-.125.125-.375.175-.15.025-.25.175-.25.3s.075.35.2.575c.25.5 2.625 4.6 2.9 5.075.175-.4 2.3-4.15 2.55-4.675.175-.375.25-.675.25-.875 0-.175-.075-.35-.35-.425-.15-.025-.3-.075-.3-.175 0-.125.075-.15.3-.15.55 0 1.1.05 1.6.05.375 0 1.5-.05 1.825-.05.175 0 .3.025.3.125 0 .125-.125.175-.325.175-.175 0-.5.075-.75.2-.35.175-.55.375-.925.825-.55.675-2.95 4.675-3.25 5.4-.25.6-.25 1.15-.25 1.7v1.4c0 .275 0 .975.05 1.7.025.5.175.875.7.925.25.025.6.075.85.075.175 0 .275.05.275.125 0 .125-.125.175-.35.175-1.075 0-2.15-.05-2.6-.05-.425 0-1.5.05-2.125.05-.25 0-.375-.025-.375-.175 0-.075.075-.125.275-.125.25 0 .45-.025.6-.075.35-.075.5-.45.525-.925.05-.725.05-1.425.05-1.7v-1.35h-.025ZM45.725 0h-1.5v41.7h1.5V0ZM30.1 25.85c0 .225-.325.325-.75.325-.725 0-4.8-.1-5.95-.175-.675-.025-.85-.15-.85-.325 0-.125.125-.225.325-.3.15-.075.225-.4.125-1.175l-.325-2.5-.175-1.35-.15-1.1-.175-1.275-.1-.775-.1-.775-.55-4.2h-.1L15.15 24.5c-.65 1.3-.825 1.575-1.15 1.575-.35 0-.675-.55-1.15-1.4-.675-1.275-2.975-5.525-3.3-6.3-.225-.525-1.925-3.875-2.875-5.8h-.1L5.2 23.275c-.075.5-.1.85-.1 1.3 0 .525.4.725.875.825.5.1.75.125 1 .125s.45.125.45.25c0 .25-.25.325-.675.325-1.2 0-2.525-.1-3.025-.1-.55 0-1.925.1-2.85.1-.3 0-.525-.075-.525-.325 0-.125.175-.25.45-.25.225 0 .425 0 .875-.075.775-.1 1.05-1.2 1.175-2.125l2.85-18c.075-.45.325-.725.55-.725.3 0 .5.125.875.875l7.7 15.35 7.7-15.55c.225-.45.5-.675.75-.675.225 0 .5501.3.65.875L25.375 15l.1.7.1.7.025.225.1.725.1001.725.6749 4.45c.25 1.725.525 2.475 1.4 2.75.825.225 1.275.25 1.625.25.4.075.6.175.6.325Z" fill="#fff"/>
  <path d="M40.15 26.55c0 .175-.175.3-.35.3-.225 0-.45.025-.775.1-.775.125-1.075.525-1.1 1.5-.025.85-.025 1.95-.025 3.325v3.075c0 .75 0 .775-.35.975-1.925.95-4.775 1.25-7.025 1.25-7.05 0-13.3-3.2-13.3-10.875 0-3.975 1.9-6.875 4.2-8.55l.1.8.225 1.775.2 1.425c-.325.975-.5 2.15-.5 3.55 0 5.975 3.85 10.325 10 10.325.75 0 1.35 0 2.025-.3.425-.2.55-.5.55-.975V31.7c0-1.375 0-2.425-.025-3.275-.025-.95-.325-1.25-1.25-1.5-.225-.075-.725-.1-1.1-.1-.25 0-.45-.125-.45-.3 0-.225.225-.25.625-.25 1.5 0 3.55.075 4.4.075.925 0 2.425-.075 3.375-.075.375 0 .55.05.55.275ZM37.7501 16.4c0 .325-.2 1.075-.2 4.575 0 .425-.175.625-.4.625-.2 0-.25-.125-.3-.35-.075-.625-.225-1.5-.975-2.275-.85-.875-3-2.125-6.225-2.125-.925 0-2 0-3.15.35l-.1-.7-.025-.15-.125-.75c1.275-.25 2.525-.3 3.7-.3 2 0 4.5.325 5.1.45.6.1 1.6.25 2.275.3.35.05.425.15.425.35Z" fill="#fff"/>
</svg>